<?xml version="1.0" encoding="UTF-8"?>
<svg xmlns="http://www.w3.org/2000/svg" xmlns:xlink="http://www.w3.org/1999/xlink" width="48px" height="48px" viewBox="0 0 48 48" version="1.1">
<g id="surface1">
<path style=" stroke:none;fill-rule:nonzero;fill:rgb(9.019608%,58.039218%,83.137256%);fill-opacity:1;" d="M 45 24 C 45 12.402344 35.597656 3 24 3 C 12.402344 3 3 12.402344 3 24 C 3 35.597656 12.402344 45 24 45 C 35.597656 45 45 35.597656 45 24 Z M 45 24 "/>
<path style=" stroke:none;fill-rule:nonzero;fill:rgb(100%,100%,100%);fill-opacity:1;" d="M 27 10.5 L 24 10.5 L 24 13.5 L 27 13.5 Z M 27 10.5 "/>
<path style=" stroke:none;fill-rule:nonzero;fill:rgb(100%,100%,100%);fill-opacity:1;" d="M 15 15 L 18 15 L 18 18 L 15 18 Z M 15 15 "/>
<path style=" stroke:none;fill-rule:nonzero;fill:rgb(100%,100%,100%);fill-opacity:1;" d="M 9.003906 25.410156 C 9.257812 29.765625 11.851562 36 21 36 C 31.199219 36 35.75 28.5 36.75 24.75 C 38 24.75 40.800781 24 42 21 C 41.25 20.25 38.25 20.25 36.75 21 C 36.75 19.800781 36 17.25 34.5 16.5 C 33.5 17.5 31.949219 20.101562 33.75 22.5 C 33 24 31 24 30 24 L 10.414062 24 C 9.621094 24 8.957031 24.621094 9.003906 25.410156 Z M 9.003906 25.410156 "/>
<path style=" stroke:none;fill-rule:nonzero;fill:rgb(100%,100%,100%);fill-opacity:1;" d="M 13.5 19.5 L 10.5 19.5 L 10.5 22.5 L 13.5 22.5 Z M 13.5 19.5 "/>
<path style=" stroke:none;fill-rule:nonzero;fill:rgb(100%,100%,100%);fill-opacity:1;" d="M 15 19.5 L 18 19.5 L 18 22.5 L 15 22.5 Z M 15 19.5 "/>
<path style=" stroke:none;fill-rule:nonzero;fill:rgb(100%,100%,100%);fill-opacity:1;" d="M 22.5 19.5 L 19.5 19.5 L 19.5 22.5 L 22.5 22.5 Z M 22.5 19.5 "/>
<path style=" stroke:none;fill-rule:nonzero;fill:rgb(100%,100%,100%);fill-opacity:1;" d="M 24 19.5 L 27 19.5 L 27 22.5 L 24 22.5 Z M 24 19.5 "/>
<path style=" stroke:none;fill-rule:nonzero;fill:rgb(100%,100%,100%);fill-opacity:1;" d="M 31.5 19.5 L 28.5 19.5 L 28.5 22.5 L 31.5 22.5 Z M 31.5 19.5 "/>
<path style=" stroke:none;fill-rule:nonzero;fill:rgb(100%,100%,100%);fill-opacity:1;" d="M 22.5 15 L 19.5 15 L 19.5 18 L 22.5 18 Z M 22.5 15 "/>
<path style=" stroke:none;fill-rule:nonzero;fill:rgb(100%,100%,100%);fill-opacity:1;" d="M 24 15 L 27 15 L 27 18 L 24 18 Z M 24 15 "/>
</g>
</svg>
