<?xml version="1.0" encoding="UTF-8"?>
<svg xmlns="http://www.w3.org/2000/svg" xmlns:xlink="http://www.w3.org/1999/xlink" width="48px" height="48px" viewBox="0 0 48 48" version="1.1">
<g id="surface1">
<path style=" stroke:none;fill-rule:nonzero;fill:rgb(91.764706%,26.274511%,20.784314%);fill-opacity:1;" d="M 30.9375 16.128906 L 36.601562 11.628906 L 35.605469 10.386719 C 31.011719 6.382812 24.6875 5.003906 18.847656 6.734375 C 13.023438 8.492188 8.515625 13.121094 6.910156 18.988281 C 6.820312 19.324219 7.847656 18.691406 8.300781 18.820312 L 16.125 17.535156 C 16.125 17.535156 16.507812 17.164062 16.726562 16.921875 C 20.207031 13.121094 26.105469 12.625 30.121094 15.859375 Z M 30.9375 16.128906 "/>
<path style=" stroke:none;fill-rule:nonzero;fill:rgb(25.882354%,52.156866%,95.686275%);fill-opacity:1;" d="M 40.910156 18.898438 C 40.007812 15.605469 38.164062 12.644531 35.601562 10.386719 L 30.109375 15.847656 C 32.425781 17.722656 33.746094 20.558594 33.691406 23.539062 L 33.691406 24.507812 C 36.390625 24.507812 38.578125 26.683594 38.578125 29.367188 C 38.578125 32.046875 36.390625 34.222656 33.691406 34.222656 L 23.917969 34.214844 L 22.945312 34.320312 L 22.945312 41.839844 L 23.917969 42 L 33.691406 42 C 39.28125 42.054688 44.25 38.445312 45.929688 33.113281 C 47.589844 27.785156 45.546875 22.003906 40.90625 18.898438 Z M 40.910156 18.898438 "/>
<path style=" stroke:none;fill-rule:nonzero;fill:rgb(20.392157%,65.882355%,32.549021%);fill-opacity:1;" d="M 14.132812 41.996094 L 23.910156 41.996094 L 23.910156 34.214844 L 14.128906 34.214844 C 13.433594 34.214844 12.746094 34.015625 12.113281 33.730469 L 10.738281 34.152344 L 6.800781 38.042969 L 6.460938 39.382812 C 8.664062 41.0625 11.355469 41.980469 14.128906 41.992188 Z M 14.132812 41.996094 "/>
<path style=" stroke:none;fill-rule:nonzero;fill:rgb(98.431373%,73.725492%,1.960784%);fill-opacity:1;" d="M 14.132812 16.714844 C 8.714844 16.738281 3.910156 20.191406 2.164062 25.320312 C 0.433594 30.445312 2.164062 36.101562 6.460938 39.382812 L 12.132812 33.730469 C 10.152344 32.847656 9 30.761719 9.304688 28.617188 C 9.613281 26.46875 11.304688 24.789062 13.453125 24.496094 C 15.597656 24.1875 17.691406 25.332031 18.59375 27.304688 L 24.265625 21.667969 C 21.84375 18.527344 18.09375 16.695312 14.128906 16.714844 Z M 14.132812 16.714844 "/>
</g>
</svg>
