<?xml version="1.0" encoding="UTF-8"?>
<svg xmlns="http://www.w3.org/2000/svg" xmlns:xlink="http://www.w3.org/1999/xlink" width="48px" height="48px" viewBox="0 0 48 48" version="1.1">
<g id="surface1">
<path style=" stroke:none;fill-rule:nonzero;fill:rgb(100%,100%,100%);fill-opacity:1;" d="M 25.554688 11.886719 C 25.554688 11.886719 21.617188 11.625 14.902344 13.726562 C 8.0625 15.867188 4.183594 18.898438 4.183594 18.898438 C 4.183594 18.898438 14.378906 13.207031 25.886719 12.882812 Z M 40.257812 18.074219 L 40.773438 18.042969 C 40.773438 18.042969 37.835938 14.480469 32.214844 12.746094 C 35.375 14.03125 38.125 15.730469 40.257812 18.074219 Z M 41.097656 19.554688 C 41.175781 19.421875 41.429688 19.988281 41.625 20.230469 C 41.632812 20.277344 41.644531 20.308594 41.535156 20.285156 C 41.523438 20.234375 41.507812 20.21875 41.507812 20.21875 C 41.507812 20.21875 41.238281 20.058594 41.152344 19.945312 C 41.070312 19.832031 41.054688 19.632812 41.097656 19.554688 Z M 47.992188 36.515625 C 47.992188 36.515625 48.617188 29.359375 37.375 27.707031 C 35.703125 27.46875 34.015625 27.34375 32.324219 27.335938 C 23.3125 27.453125 22.984375 16.941406 29.777344 16.410156 C 32.589844 16.179688 35.949219 17.695312 39.234375 19.226562 C 39.222656 19.632812 39.238281 19.996094 39.507812 20.328125 C 39.777344 20.664062 40.804688 21.03125 41.132812 21.21875 C 41.460938 21.40625 42.515625 22.078125 43.160156 22.921875 C 43.300781 22.65625 44.46875 21.894531 44.46875 21.894531 C 44.46875 21.894531 44.191406 21.902344 43.539062 21.65625 C 42.886719 21.414062 42.113281 20.679688 42.097656 20.636719 C 42.074219 20.59375 42.066406 20.527344 42.214844 20.496094 C 42.335938 20.398438 42.070312 20.082031 41.957031 19.964844 C 41.839844 19.851562 41.066406 18.535156 41.046875 18.507812 C 41.03125 18.472656 41.023438 18.445312 40.96875 18.40625 C 40.796875 18.351562 40.046875 18.484375 40.046875 18.484375 C 40.046875 18.484375 38.898438 17.921875 38.5 16.699219 C 38.507812 16.914062 38.300781 17.148438 38.5 17.636719 C 37.898438 17.382812 37.382812 16.949219 36.976562 15.878906 C 36.734375 16.488281 36.976562 16.875 36.976562 16.875 C 36.976562 16.875 35.5625 16.480469 35.335938 15.175781 C 35.089844 15.761719 35.335938 16.113281 35.335938 16.113281 C 35.335938 16.113281 33.03125 14.910156 29.199219 14.894531 C 26.632812 14.65625 26.097656 10.144531 26.339844 9.386719 C 26.339844 9.386719 22.636719 7.4375 15.351562 6.574219 C 8.066406 5.714844 2.097656 6.445312 2.097656 6.445312 C 2.097656 6.445312 14.996094 5.824219 25.328125 10.011719 C 25.683594 11.578125 26.738281 14.199219 27.308594 15.457031 C 25.679688 16.582031 23.84375 17.640625 23.554688 21.394531 C 23.269531 25.152344 26.5 28.457031 30.503906 28.554688 C 34.304688 28.761719 36.933594 28.789062 40.117188 30.441406 C 43.15625 32.121094 45.648438 37.238281 45.894531 41.847656 C 46.160156 38.429688 44.878906 31.078125 38.894531 28.851562 C 47.257812 30.3125 47.992188 36.515625 47.992188 36.515625 Z M 25.359375 11.324219 L 25.058594 10.355469 C 25.058594 10.355469 20.09375 9.472656 13.414062 9.949219 C 6.738281 10.421875 0 12.761719 0 12.761719 C 0 12.761719 13.792969 9.289062 25.359375 11.324219 Z M 25.359375 11.324219 "/>
</g>
</svg>
