<?xml version="1.0" encoding="UTF-8"?>
<svg xmlns="http://www.w3.org/2000/svg" xmlns:xlink="http://www.w3.org/1999/xlink" width="48px" height="48px" viewBox="0 0 48 48" version="1.1">
<g id="surface1">
<path style=" stroke:none;fill-rule:nonzero;fill:rgb(100%,100%,100%);fill-opacity:1;" d="M 45.039062 22.707031 C 44.914062 22.699219 44.773438 22.695312 44.628906 22.695312 C 43.902344 22.695312 43.210938 22.828125 42.570312 23.074219 L 42.609375 23.0625 C 42.421875 23.136719 42.121094 23.136719 42.097656 23.375 C 42.199219 23.472656 42.214844 23.636719 42.300781 23.773438 C 42.476562 24.070312 42.691406 24.324219 42.945312 24.535156 L 42.949219 24.539062 C 43.210938 24.742188 43.472656 24.945312 43.75 25.117188 C 44.238281 25.417969 44.792969 25.597656 45.269531 25.898438 C 45.539062 26.074219 45.816406 26.296875 46.09375 26.484375 C 46.230469 26.578125 46.320312 26.746094 46.492188 26.808594 L 46.492188 26.769531 C 46.410156 26.65625 46.382812 26.496094 46.296875 26.371094 C 46.171875 26.242188 46.046875 26.132812 45.921875 26.007812 C 45.550781 25.519531 45.121094 25.105469 44.636719 24.757812 L 44.617188 24.742188 C 44.21875 24.472656 43.339844 24.089844 43.175781 23.628906 L 43.152344 23.601562 C 43.480469 23.554688 43.769531 23.484375 44.050781 23.390625 L 44.015625 23.402344 C 44.441406 23.289062 44.832031 23.316406 45.269531 23.203125 C 45.46875 23.152344 45.667969 23.09375 45.871094 23.03125 L 45.871094 22.917969 C 45.644531 22.691406 45.476562 22.386719 45.246094 22.175781 C 44.632812 21.636719 43.953125 21.128906 43.242188 20.671875 L 43.175781 20.632812 C 42.78125 20.382812 42.28125 20.21875 41.867188 20.007812 C 41.71875 19.933594 41.46875 19.894531 41.378906 19.769531 C 41.183594 19.492188 41.011719 19.171875 40.875 18.835938 L 40.863281 18.804688 C 40.496094 18.089844 40.15625 17.363281 39.839844 16.625 C 39.621094 16.050781 39.40625 15.578125 39.167969 15.121094 L 39.199219 15.195312 C 38.023438 13.214844 36.378906 11.625 34.417969 10.539062 L 34.355469 10.507812 C 33.890625 10.277344 33.351562 10.097656 32.785156 10 L 32.75 9.992188 C 32.4375 9.976562 32.125 9.957031 31.8125 9.941406 C 31.59375 9.800781 31.402344 9.65625 31.226562 9.496094 L 31.230469 9.503906 C 30.519531 9.050781 28.675781 8.078125 28.152344 9.367188 C 27.8125 10.179688 28.652344 10.984375 28.941406 11.394531 C 29.171875 11.671875 29.382812 11.976562 29.5625 12.304688 L 29.578125 12.332031 C 29.667969 12.550781 29.691406 12.773438 29.78125 13 C 29.996094 13.679688 30.21875 14.234375 30.46875 14.773438 L 30.429688 14.679688 C 30.578125 14.980469 30.730469 15.234375 30.90625 15.472656 L 30.890625 15.453125 C 30.992188 15.589844 31.164062 15.65625 31.207031 15.878906 C 31.078125 16.152344 30.976562 16.46875 30.921875 16.796875 L 30.917969 16.816406 C 30.757812 17.316406 30.660156 17.890625 30.660156 18.484375 C 30.660156 19.414062 30.890625 20.292969 31.296875 21.066406 L 31.28125 21.035156 C 31.480469 21.34375 31.960938 22.035156 32.597656 21.769531 C 33.160156 21.546875 33.035156 20.832031 33.199219 20.207031 C 33.234375 20.054688 33.210938 19.957031 33.289062 19.855469 L 33.289062 19.882812 C 33.464844 20.238281 33.640625 20.574219 33.800781 20.925781 C 34.253906 21.578125 34.792969 22.132812 35.40625 22.589844 L 35.425781 22.601562 C 35.726562 22.828125 35.964844 23.21875 36.339844 23.355469 L 36.339844 23.320312 L 36.3125 23.320312 C 36.226562 23.226562 36.132812 23.144531 36.027344 23.074219 L 36.023438 23.070312 C 35.789062 22.84375 35.574219 22.597656 35.378906 22.335938 L 35.367188 22.320312 C 34.878906 21.660156 34.414062 20.914062 34.007812 20.128906 L 33.964844 20.035156 C 33.761719 19.644531 33.589844 19.21875 33.421875 18.832031 C 33.347656 18.679688 33.347656 18.457031 33.222656 18.382812 C 33 18.628906 32.800781 18.90625 32.632812 19.207031 L 32.621094 19.230469 C 32.429688 19.789062 32.304688 20.4375 32.269531 21.105469 L 32.269531 21.121094 C 32.21875 21.136719 32.246094 21.121094 32.21875 21.148438 C 31.820312 21.050781 31.679688 20.636719 31.53125 20.289062 C 31.328125 19.738281 31.210938 19.101562 31.210938 18.441406 C 31.210938 17.90625 31.285156 17.390625 31.429688 16.902344 L 31.421875 16.941406 C 31.507812 16.679688 31.882812 15.851562 31.734375 15.601562 C 31.65625 15.363281 31.410156 15.226562 31.269531 15.03125 C 31.105469 14.800781 30.957031 14.539062 30.832031 14.261719 L 30.820312 14.230469 C 30.519531 13.53125 30.371094 12.753906 30.046875 12.050781 C 29.847656 11.6875 29.640625 11.371094 29.410156 11.078125 L 29.417969 11.089844 C 29.171875 10.804688 28.945312 10.484375 28.746094 10.144531 L 28.730469 10.117188 C 28.667969 9.980469 28.578125 9.753906 28.679688 9.601562 C 28.695312 9.515625 28.765625 9.449219 28.855469 9.433594 C 29.019531 9.300781 29.484375 9.476562 29.644531 9.550781 C 30.121094 9.730469 30.53125 9.941406 30.910156 10.191406 L 30.886719 10.175781 C 31.0625 10.300781 31.253906 10.539062 31.476562 10.597656 L 31.738281 10.597656 C 32.140625 10.6875 32.59375 10.625 32.96875 10.734375 C 33.65625 10.96875 34.253906 11.257812 34.804688 11.617188 L 34.773438 11.597656 C 36.425781 12.664062 37.753906 14.113281 38.652344 15.820312 L 38.679688 15.882812 C 38.832031 16.171875 38.898438 16.433594 39.03125 16.734375 C 39.296875 17.351562 39.621094 17.980469 39.886719 18.574219 C 40.140625 19.21875 40.441406 19.773438 40.796875 20.285156 L 40.777344 20.257812 C 40.964844 20.519531 41.71875 20.65625 42.058594 20.792969 C 42.414062 20.917969 42.699219 21.035156 42.972656 21.167969 L 42.917969 21.144531 C 43.347656 21.40625 43.769531 21.707031 44.171875 21.996094 C 44.378906 22.136719 45.003906 22.453125 45.042969 22.703125 Z M 27.453125 33.679688 C 27.453125 33.699219 27.453125 33.726562 27.453125 33.75 C 27.453125 34.589844 27.082031 35.335938 26.488281 35.839844 L 26.484375 35.84375 C 25.835938 36.371094 25.003906 36.691406 24.089844 36.691406 C 24.019531 36.691406 23.949219 36.691406 23.882812 36.6875 L 23.890625 36.6875 C 22.78125 36.671875 21.761719 36.3125 20.925781 35.710938 L 20.941406 35.722656 L 21.386719 34.828125 C 22.027344 35.1875 22.792969 35.410156 23.605469 35.445312 L 23.617188 35.445312 C 23.65625 35.445312 23.703125 35.449219 23.75 35.449219 C 24.25 35.449219 24.710938 35.292969 25.09375 35.027344 L 25.085938 35.03125 C 25.429688 34.769531 25.648438 34.363281 25.648438 33.902344 C 25.648438 33.894531 25.648438 33.886719 25.648438 33.878906 C 25.648438 33.261719 25.214844 32.734375 24.433594 32.296875 C 23.703125 31.894531 22.253906 31.0625 22.253906 31.0625 C 21.535156 30.621094 21.066406 29.839844 21.066406 28.945312 C 21.066406 28.914062 21.066406 28.882812 21.066406 28.851562 L 21.066406 28.855469 C 21.066406 28.828125 21.066406 28.796875 21.066406 28.761719 C 21.066406 27.988281 21.40625 27.296875 21.945312 26.824219 L 21.949219 26.824219 C 22.519531 26.335938 23.269531 26.042969 24.085938 26.042969 C 24.140625 26.042969 24.191406 26.042969 24.242188 26.042969 L 24.234375 26.042969 C 24.246094 26.042969 24.265625 26.042969 24.28125 26.042969 C 25.238281 26.042969 26.132812 26.332031 26.875 26.824219 L 26.859375 26.8125 L 26.457031 27.707031 C 25.871094 27.441406 25.1875 27.285156 24.46875 27.277344 L 24.464844 27.277344 C 24.429688 27.273438 24.386719 27.273438 24.347656 27.273438 C 23.925781 27.273438 23.539062 27.417969 23.238281 27.664062 L 23.238281 27.660156 C 22.957031 27.898438 22.777344 28.25 22.773438 28.644531 C 22.773438 29.257812 23.210938 29.785156 24.023438 30.238281 C 24.757812 30.640625 26.246094 31.492188 26.246094 31.492188 C 26.980469 31.921875 27.464844 32.707031 27.464844 33.601562 C 27.464844 33.628906 27.464844 33.660156 27.460938 33.683594 L 27.460938 33.679688 Z M 30.5625 34.472656 C 30.152344 33.65625 29.914062 32.695312 29.914062 31.675781 C 29.914062 31.515625 29.917969 31.355469 29.929688 31.199219 L 29.929688 31.222656 C 29.929688 28.609375 30.722656 27.304688 32.308594 27.304688 C 32.347656 27.300781 32.394531 27.296875 32.445312 27.296875 C 33.15625 27.296875 33.78125 27.671875 34.136719 28.230469 L 34.140625 28.238281 C 34.546875 29.050781 34.785156 30.011719 34.785156 31.027344 C 34.785156 31.183594 34.78125 31.335938 34.769531 31.488281 L 34.773438 31.46875 C 34.773438 34.101562 33.976562 35.417969 32.390625 35.417969 C 32.351562 35.421875 32.304688 35.425781 32.257812 35.425781 C 31.546875 35.425781 30.917969 35.050781 30.5625 34.492188 L 30.558594 34.484375 Z M 36.730469 36.800781 L 34.828125 35.863281 C 35 35.71875 35.15625 35.566406 35.300781 35.402344 L 35.304688 35.398438 C 36.074219 34.359375 36.535156 33.050781 36.535156 31.640625 C 36.535156 31.476562 36.53125 31.3125 36.519531 31.152344 L 36.519531 31.175781 C 36.519531 27.746094 35.175781 26.027344 32.480469 26.027344 C 32.421875 26.023438 32.351562 26.023438 32.28125 26.023438 C 31.128906 26.023438 30.097656 26.527344 29.390625 27.328125 L 29.390625 27.335938 C 28.621094 28.371094 28.164062 29.675781 28.164062 31.089844 C 28.164062 31.25 28.167969 31.40625 28.179688 31.5625 L 28.179688 31.542969 C 28.164062 31.695312 28.15625 31.871094 28.15625 32.050781 C 28.15625 33.359375 28.570312 34.574219 29.269531 35.574219 L 29.253906 35.554688 C 29.929688 36.269531 30.882812 36.71875 31.941406 36.71875 C 32.039062 36.71875 32.136719 36.710938 32.234375 36.703125 L 32.21875 36.707031 C 32.234375 36.707031 32.25 36.707031 32.269531 36.707031 C 32.734375 36.707031 33.1875 36.640625 33.613281 36.515625 L 33.582031 36.523438 L 36.066406 37.972656 L 36.738281 36.804688 Z M 42.953125 36.550781 L 38.023438 36.550781 L 38.023438 26.183594 L 39.683594 26.183594 L 39.683594 35.277344 L 42.953125 35.277344 Z M 19.851562 28.902344 C 19.421875 32.027344 18.4375 34.847656 16.996094 37.378906 L 17.054688 37.261719 C 16.476562 38.371094 15.386719 39.148438 14.101562 39.273438 L 14.089844 39.273438 C 13.699219 39.253906 13.339844 39.160156 13.007812 39.007812 L 13.027344 39.015625 L 13.027344 38.089844 C 13.234375 38.121094 13.46875 38.140625 13.710938 38.140625 C 13.726562 38.140625 13.738281 38.140625 13.753906 38.140625 C 13.777344 38.140625 13.804688 38.140625 13.828125 38.140625 C 14.261719 38.140625 14.660156 37.984375 14.96875 37.71875 L 14.964844 37.722656 C 15.292969 37.449219 15.503906 37.046875 15.515625 36.589844 C 15.4375 35.929688 15.285156 35.332031 15.070312 34.765625 L 15.085938 34.816406 L 13.1875 28.902344 L 14.890625 28.902344 L 16.253906 33.324219 C 16.5 33.949219 16.640625 34.671875 16.640625 35.425781 C 16.640625 35.429688 16.640625 35.429688 16.640625 35.429688 C 17.363281 33.535156 17.910156 31.328125 18.191406 29.039062 L 18.203125 28.902344 Z M 12.324219 36.550781 L 10.585938 36.550781 C 10.535156 33.789062 10.367188 31.03125 10.078125 28.28125 L 10.066406 28.28125 L 7.421875 36.550781 L 6.101562 36.550781 L 3.476562 28.28125 L 3.457031 28.28125 C 3.253906 31.035156 3.128906 33.789062 3.089844 36.550781 L 1.507812 36.550781 C 1.609375 32.863281 1.867188 29.410156 2.277344 26.183594 L 4.429688 26.183594 L 6.933594 33.800781 L 6.949219 33.800781 L 9.472656 26.183594 L 11.523438 26.183594 C 11.976562 29.960938 12.246094 33.414062 12.328125 36.550781 Z M 32.257812 11.820312 C 32.253906 11.820312 32.25 11.820312 32.246094 11.820312 C 32.066406 11.820312 31.894531 11.839844 31.730469 11.882812 L 31.746094 11.878906 L 31.746094 11.902344 L 31.769531 11.902344 C 31.898438 12.097656 32.03125 12.261719 32.171875 12.417969 L 32.171875 12.414062 C 32.269531 12.617188 32.359375 12.816406 32.457031 13.015625 L 32.484375 12.988281 C 32.648438 12.859375 32.75 12.660156 32.75 12.4375 C 32.75 12.410156 32.75 12.386719 32.746094 12.359375 L 32.746094 12.363281 C 32.671875 12.273438 32.660156 12.1875 32.597656 12.097656 C 32.523438 11.972656 32.359375 11.910156 32.257812 11.8125 Z M 32.257812 11.820312 "/>
</g>
</svg>
