<?xml version="1.0" encoding="UTF-8"?>
<svg xmlns="http://www.w3.org/2000/svg" xmlns:xlink="http://www.w3.org/1999/xlink" width="48px" height="48px" viewBox="0 0 48 48" version="1.1">
<defs>
<linearGradient id="linear0" gradientUnits="userSpaceOnUse" x1="0.129594" y1="0.120394" x2="0.796388" y2="0.782009" gradientTransform="matrix(35.492188,0,0,35.589844,0.0273437,0.105469)">
<stop offset="0" style="stop-color:rgb(21.960784%,49.411765%,72.156863%);stop-opacity:1;"/>
<stop offset="1" style="stop-color:rgb(21.176471%,41.176471%,58.039216%);stop-opacity:1;"/>
</linearGradient>
<linearGradient id="linear1" gradientUnits="userSpaceOnUse" x1="0.191275" y1="0.205792" x2="0.907415" y2="0.88429" gradientTransform="matrix(35.492188,0,0,35.585938,12.417969,12.15625)">
<stop offset="0" style="stop-color:rgb(100%,87.843137%,32.156863%);stop-opacity:1;"/>
<stop offset="1" style="stop-color:rgb(100%,76.470588%,19.215686%);stop-opacity:1;"/>
</linearGradient>
</defs>
<g id="surface1">
<path style=" stroke:none;fill-rule:nonzero;fill:url(#linear0);" d="M 23.796875 0.105469 C 11.640625 0.105469 12.398438 5.378906 12.398438 5.378906 L 12.414062 10.839844 L 24.011719 10.839844 L 24.011719 12.480469 L 7.804688 12.480469 C 7.804688 12.480469 0.0273438 11.597656 0.0273438 23.863281 C 0.0273438 36.128906 6.816406 35.695312 6.816406 35.695312 L 10.867188 35.695312 L 10.867188 30.003906 C 10.867188 30.003906 10.648438 23.214844 17.550781 23.214844 L 29.054688 23.214844 C 29.054688 23.214844 35.519531 23.316406 35.519531 16.964844 L 35.519531 6.464844 C 35.519531 6.464844 36.5 0.105469 23.796875 0.105469 Z M 17.398438 3.78125 C 18.554688 3.78125 19.488281 4.710938 19.488281 5.867188 C 19.488281 7.019531 18.554688 7.953125 17.398438 7.953125 C 16.246094 7.953125 15.3125 7.019531 15.3125 5.867188 C 15.3125 4.710938 16.246094 3.78125 17.398438 3.78125 Z M 17.398438 3.78125 "/>
<path style=" stroke:none;fill-rule:nonzero;fill:url(#linear1);" d="M 24.140625 47.742188 C 36.296875 47.742188 35.539062 42.472656 35.539062 42.472656 L 35.523438 37.007812 L 23.925781 37.007812 L 23.925781 35.371094 L 40.132812 35.371094 C 40.132812 35.371094 47.910156 36.25 47.910156 23.988281 C 47.910156 11.722656 41.121094 12.15625 41.121094 12.15625 L 37.070312 12.15625 L 37.070312 17.847656 C 37.070312 17.847656 37.289062 24.636719 30.390625 24.636719 L 18.882812 24.636719 C 18.882812 24.636719 12.417969 24.53125 12.417969 30.882812 L 12.417969 41.386719 C 12.417969 41.386719 11.4375 47.742188 24.140625 47.742188 Z M 30.539062 44.070312 C 29.382812 44.070312 28.453125 43.136719 28.453125 41.984375 C 28.453125 40.828125 29.382812 39.894531 30.539062 39.894531 C 31.691406 39.894531 32.625 40.828125 32.625 41.984375 C 32.625 43.136719 31.691406 44.070312 30.539062 44.070312 Z M 30.539062 44.070312 "/>
</g>
</svg>
